<mxfile host="app.diagrams.net" modified="2023-10-18T06:52:01.621Z" agent="Mozilla/5.0 (X11; Linux x86_64; rv:109.0) Gecko/20100101 Firefox/114.0" version="21.6.6" etag="hxECpCcgYUb_QzSKT5_j" type="github">
  <diagram name="第 1 页" id="db2C9ehG3oDeZpzlVr3G">
    <mxGraphModel>
      <root>
        <mxCell id="0" />
        <mxCell id="1" parent="0" />
      </root>
    </mxGraphModel>
  </diagram>
</mxfile>
